<svg xmlns="http://www.w3.org/2000/svg" xml:space="preserve" width="2271" height="2500" version="1.1" viewBox="0 0 4653.55 5123.63" shape-rendering="geometricPrecision" text-rendering="geometricPrecision" image-rendering="optimizeQuality" fill-rule="evenodd" clip-rule="evenodd"><rect x="0" y="0" width="4653.55" height="5123.63" rx="816.78" ry="764.25" fill="#000001"/><path d="M3396.98 892.6c0-295.42-239.58-534.85-535.08-534.85H1791.67c-295.5 0-535.08 239.5-535.08 534.85h535.08c-295.5 0-535.08 239.42-535.08 534.85v534.85l2140.39-.08v-534.85H2861.9c295.51.06 535.08-239.42 535.08-534.77m0 2231.62c0-295.42-239.58-534.85-535.08-534.85h535.08c0-295.34-239.58-534.85-535.08-534.85H1791.67c-295.58 0-535.08 239.5-535.08 534.85v534.93c0 295.42 239.58 534.85 535.08 534.85H2861.9c295.51-.08 535.08-239.58 535.08-534.92z" fill="#FEFEFE" fill-rule="nonzero"/><path d="M1852.23 3026.58v311.41h98.37v-112.46h68.26l26.68-68.03h-94.93v-63.07h115.45l25.2-67.84h-239.02zm433.25 0v311.41h98.36v-112.46h68.21l26.73-68.03h-94.93v-63.07h115.34l25.41-67.84h-239.11zm314.29 209.75 37.44-129.77 38.73 129.77zm89.49-209.75h-100.91l-111.87 311.4h93.85l12.15-41.88h109.53l12.61 41.88h96.72zm-567.84 0-.2 311.41h97.12v-311.41z" fill="#000001" fill-rule="nonzero"/><path d="M3378.71 3611.33v12.33h-53.45v22.07h-10.4v-56.47h10.4v22.07zm-15.69-69.29v.39l-29.92 21.77h45.61v12.13h-63.85v-13.02l30.2-21.18-30.2-21.18v-13.02h63.85v12.13h-45.79l30.11 21.98zm-1663.21 353.89c41.13-13.04 88.04-5.02 122.41 21.11 51.6 37.28 70.82 112.73 41.73 169.66-22.95 50.21-78.95 82.8-133.89 77.84-63.68-3.73-119.85-57.72-125.64-121.28-8.98-63.7 33.92-129.11 95.38-147.33zm1479.86-.23c38.78.44 77.56-.67 116.28.67 35.11 1.61 72.44 21.11 83.47 56.44 11.54 37.29 4.24 85.92-30.53 108.65-28.08 19.05-63.23 17.43-95.55 18.5 1 26.36.11 52.7.45 79.06-24.8-.05-49.6 0-74.39-.11.78-87.75.11-175.45.27-263.21m-834.15 262.16c.33-86.98-.18-173.95.33-260.88 40.12.4 80.23-.65 120.35.4 62.8 4.07 118.06 59.68 119.57 123.03 5.79 68.36-51.87 133.39-120.13 137.07-40 .95-80.06.22-120.13.39zm-442.62-261.98c42.57.17 85.19-.89 127.76.56 46.19 1.89 85.69 44.46 85.07 90.53 1 32.93-21.5 62.3-50.09 76.62 18.5 32.26 38.89 63.35 57.5 95.5-30.08-.28-60.17.16-90.25-.39-12.71-27.75-24.7-55.95-39.01-82.85-3.67-.23-11.04-.79-14.71-1.06-.11 28.13.11 56.22-.05 84.3-25.41-.17-50.82 0-76.17 0 0-87.76.12-175.51-.06-263.21zm-181.58 60.01c-43.12 21.28-47.31 85.91-20.45 121.51 19.11 28.59 65.91 25.24 82.91-3.9 18.28-32.03 18.44-77.22-6.96-105.57-13.49-15.49-36.83-19.4-55.5-12.04m968.55 8.92c22.83-41.97 67.8-71.61 115.94-73.11 31.32-2.73 62.02 7.64 88.54 23.68-7.14 18.72-15.05 37.17-21.29 56.22-29.13-25.36-77.17-21.06-100.96 9.47-28.59 32.21-18.5 88.48 19.05 109.21 31.09 17.22 73.22 11.03 97.95-14.66-.39 22.57-.5 45.08.11 67.59-40.05 23.8-92.05 27.58-134.28 7.46-30.76-13.65-56.05-39.34-69.31-70.21-16.21-36.54-13.88-80.24 4.24-115.66zm563.85 60.28c16.1-.79 35.94 3.12 47.81-10.75 14.48-13.81 11.08-39.73-5.02-50.81-12.15-9.25-28.31-6.58-42.45-7.41-.44 23-.17 45.97-.34 68.98zm-828.01-70.98c-.79 48.87-.11 97.73-.34 146.6 19.72-.17 42.29 1.39 57.94-13.1 33.54-29.59 33.65-89.44 1.06-119.73-15.71-14.77-38.61-13.94-58.66-13.77m-283.44-58.28c28.14.11 56.22.23 84.36.17.44 67.36.11 134.72.11 202.09 34.09.17 68.19-.12 102.35.22-6.86 20.17-13.6 40.29-20.62 60.41-55.44.89-110.82.16-166.2.27.22-87.7-.11-175.39 0-263.15zm-163.03 60.57c-.28 22.89-.11 45.74 0 68.65 15.77-.84 35.11 2.89 47.03-10.25 15.33-13.55 11.91-40.57-4.85-51.38-11.99-9.59-28.1-6.14-42.18-7.02m-651.66 202.48c-19.56-87.69-38.57-175.52-58.51-263.16 26.46.28 52.88-.27 79.35.34 7.47 48.42 15.76 96.72 24.06 144.98 12.15-48.37 24.13-96.79 35.78-145.26 18.84.12 37.67-.11 56.44.17 10.81 49.25 24.91 97.73 35.05 147.09 8.97-48.96 16.38-98.17 24.91-147.2q39.195-.09 78.39 0c-18.56 87.81-38.89 175.23-57.61 262.99-25.07.39-50.09.67-75.16-.34-11.09-48.19-22.06-96.39-33.99-144.36-11.54 48.36-22.62 96.77-34.44 145.03-24.73-.05-49.53.16-74.26-.28zm1587.67-264.72c26.47-.23 52.93-.05 79.4-.18.72 56.9-.45 113.84.44 170.73-.61 21.51 24.74 37.72 44.18 28.64 13.82-4.96 21-19.89 20-33.93.11-55.05.11-110.1-.05-165.15 26.69-.23 53.44 0 80.13-.46-.67 57.12-.06 114.18-.34 171.29.28 24.62-8.31 49.81-26.86 66.64-28.52 25.51-69.2 32.26-106.2 27.58-24.9-3.51-50.42-12.7-67.86-31.53-15.61-16.93-23.12-40.18-22.91-63.02 0-56.83.17-113.72.06-170.61zm-916.19 306.39c77.11-4.01 160.3-3.45 228.78 37.1 50.7 30.1 76.28 88.99 78.67 146.21 1.34 66.8.28 133.72.56 200.53-.28 54.21-17.61 111.77-60.79 147.15-53.66 43.13-125.53 51.59-192.12 52.04-67.86-.05-141.13-5.51-197.85-46.85-45.97-33.32-66.03-91.61-67.25-146.61-.57-65.13-.33-130.26.05-195.39.77-50.37 16.16-103.31 54.32-138.18 42.01-38.5 100.41-51.32 155.62-56.01zm942.69 40c63.3-41.45 142.53-42.06 215.57-41.51 53.16 2.68 111.55 6.08 155.01 40.57 38.67 30.3 48.98 82.29 51.2 128.76-56.88.06-113.77.5-170.6-.22-1.23-22.18-16-42.46-37.44-48.81-23.51-6.64-50.27-5.69-71.99 6.13-21.46 11.97-33.82 35.99-35.22 60.06-1.5 30.3.11 60.73-1.06 91.1 21.84-24.63 49.2-45.47 81.85-52.87 56.5-13.44 118.46-14.37 172.44 9.3 45.3 19.28 82.3 61.17 87.43 111.2 3.4 45.59 1.78 93.61-18 135.68-16.54 36.11-47.75 64.36-84.52 79.02-61.79 25.51-130.44 26.13-196.23 23.73-57.23-3.57-119.07-12.03-164.16-50.75-39.5-33.21-53.26-86.98-54.09-136.73.05-70.49-.4-140.96.22-211.44 1.33-54.44 22.06-112.56 69.59-143.21zm-919.62 77.34c-33.43 7.3-62.74 35.99-64.03 71.32-1.61 61.29-.11 122.64-.77 183.93-.56 23.02 3.18 48.25 19.67 65.58 29.08 31.53 78.95 35.82 116.73 18.78 28.19-12.54 45.8-43.01 44.85-73.55.27-61.12.44-122.19-.06-183.31.67-23.84-8.19-48.25-26.57-63.96-24.63-20.33-59.17-25.24-89.82-18.78zm362.22-43.12c36.55-46.3 97.34-63.18 153.78-68.25 72.32-5.35 150.83-3.96 214.12 36.05 45.74 28.42 69.64 82.68 69.7 135.39 2.95 52.44-11.69 111.49-56.99 142.98-54.44 40.06-125.69 38.16-185.76 64.75-26.13 10.48-43.35 36.88-41.45 65.19 94.88-.28 189.7.06 284.6 0-.16 42.51-.06 85.03-.16 127.53-153.84.06-307.73 0-461.62.12-.28-50.09-.39-100.18.05-150.22.23-31.09 10.59-62.12 31.15-85.69 34.77-39.78 86.92-57.66 136.67-70.08 30.48-8.36 65.74-8.42 89.93-31.48 24.01-20.28 29.3-56.33 18.54-84.8-13.03-36.17-66.24-39.4-92.2-16.05-19.79 21.17-13.71 52.27-15.1 78.62-59.95-.16-119.96-.22-179.91 0-2.01-49.59 2.11-103.85 34.66-144.03zm-1083.49-3.62c39.95-46.46 103.69-61.52 162.36-65.52 66.35-3.51 137.17-1.29 196.24 32.7 42.29 23.56 69.64 68.98 74.61 116.73 7.52 57.89-2.35 126.53-52.38 163.53-55.55 43.91-130.99 39.45-192.66 69.21-24.35 10.81-38.67 36.44-37.34 62.74 94.84.62 189.67-.16 284.5.34.11 42.56-.17 85.13.11 127.7-154.12-.44-308.18.11-462.24-.34.34-50.09-.56-100.18.4-150.27.33-37.27 15.99-74.66 44.63-98.96 37.61-32.48 86.19-48.64 134.05-58.88 33.42-6.53 73.44-12.16 92.21-44.69 17.17-29.2 16.27-78.34-18.04-94.66-22.29-8.2-50.93-7.69-68.98 9.47-18.39 21.73-13.49 51.76-15.16 78.06-59.79 1.28-119.62-.23-179.47.88-2.29-51.2 2.56-107.3 37.16-148.04m1802.85 254.8c-55.04 6.91-69.92 82.8-36.32 120.19 25.35 24.85 66.58 25.46 98.06 13.09 36.93-16.32 43.84-66.41 28.13-99.84-15.15-33.26-57.54-39.79-89.87-33.43z" fill="#FEFEFE" fill-rule="nonzero"/></svg>